<svg xmlns="http://www.w3.org/2000/svg" xmlns:xlink="http://www.w3.org/1999/xlink">
<defs>
<path d="M0 3.326a.995.995 0 0 1 1-.993h14c.552 0 1 .44 1 .993v.681A.995.995 0 0 1 15 5H1c-.552 0-1-.44-1-.993v-.68zM0 8.66a.995.995 0 0 1 1-.993h14c.552 0 1 .44 1 .993v.68a.995.995 0 0 1-1 .993H1c-.552 0-1-.44-1-.993v-.68zm0 5.333A.995.995 0 0 1 1 13h14c.552 0 1 .44 1 .993v.68a.995.995 0 0 1-1 .994H1c-.552 0-1-.44-1-.993v-.681z" id="a"/>
</defs>
<symbol id="cloud-drizzle" viewBox="0 0 26 26"><title>cloud-drizzle</title><g fill="none" fill-rule="evenodd"><path d="M0 0h26v26H0z"/><g stroke="#333" stroke-linecap="round" stroke-linejoin="round" stroke-width="3"><path d="M15 20v2M15 13v2M10 22v2M10 15v2M21 17.58A5 5 0 0 0 19 8h-1.26A8 8 0 1 0 5 16.25"/></g></g></symbol>
<symbol id="icon_list_m-1x" viewBox="0 0 16 14"><title>icon_list_m</title><use fill="#333" xlink:href="#a" transform="translate(0 -2)" fill-rule="evenodd"/></symbol>
<symbol id="icon_scheduled" viewBox="0 0 24 24"><title>icon_scheduled</title><g fill="none" fill-rule="evenodd"><path fill="#F8F8F8" d="M-925-250H441v768H-925z"/><path d="M0 0h24v24H0z"/><g transform="translate(2 2)" stroke="#000" stroke-linecap="round" stroke-linejoin="round" stroke-width="2"><circle cx="10" cy="10" r="10"/><path opacity=".3" d="M10 4v6l3 3"/></g></g></symbol>
<symbol id="icon_sun" viewBox="0 0 24 24"><title>icon_sun</title><g fill="none" fill-rule="evenodd"><path fill="#F8F8F8" d="M-464-404H902v768H-464z"/><path d="M0 0h24v24H0z"/><g transform="translate(1 1)" stroke="#333" stroke-linecap="round" stroke-linejoin="round" stroke-width="2"><circle stroke-opacity=".4" cx="11" cy="11" r="5"/><path d="M11 0v2M11 20v2M3.22 3.22l1.42 1.42M17.36 17.36l1.42 1.42M0 11h2M20 11h2M3.22 18.78l1.42-1.42M17.36 4.64l1.42-1.42" stroke-opacity=".1"/></g></g></symbol>
<symbol id="icon_sun_2" viewBox="0 0 24 24"><title>icon_sun_2</title><g fill="none" fill-rule="evenodd"><path fill="#F8F8F8" d="M-1140-250H226v768h-1366z"/><path d="M0 0h24v24H0z"/><g transform="translate(1 1)" stroke-linecap="round" stroke-linejoin="round" stroke-width="2"><circle stroke="#F5A623" cx="11" cy="11" r="5"/><path d="M11 0v2M11 20v2M3.22 3.22l1.42 1.42M17.36 17.36l1.42 1.42M0 11h2M20 11h2M3.22 18.78l1.42-1.42M17.36 4.64l1.42-1.42" stroke="#FFD93E"/></g></g></symbol>
<symbol id="icon_temperature" viewBox="0 0 24 24"><title>icon_temperature</title><g fill="none" fill-rule="evenodd"><path fill="#F8F8F8" d="M-464-269H902v768H-464z"/><g><path d="M0 0h24v24H0z"/><path d="M14 14.76V3.5a2.5 2.5 0 1 0-5 0v11.26a4.5 4.5 0 1 0 5 0z" stroke-opacity=".4" stroke="#333" stroke-width="2" stroke-linecap="round" stroke-linejoin="round"/><circle fill-opacity=".1" fill="#333" fill-rule="nonzero" cx="11.5" cy="18.5" r="3.5"/></g></g></symbol>
<symbol id="icon_temperature_2" viewBox="0 0 24 24"><title>icon_temperature_2</title><g fill="none" fill-rule="evenodd"><path fill="#F8F8F8" d="M-925-365H441v768H-925z"/><path d="M0 0h24v24H0z"/><g transform="translate(7 1)"><path d="M7 13.76V2.5a2.5 2.5 0 0 0-5 0v11.26a4.5 4.5 0 1 0 5 0z" stroke="#F5A623" stroke-width="2" stroke-linecap="round" stroke-linejoin="round"/><circle fill="#FFD93E" fill-rule="nonzero" cx="4.5" cy="17.5" r="3.5"/></g></g></symbol>
</svg>